<svg xmlns="http://www.w3.org/2000/svg" viewBox="0 0 162.79 27.2"><defs><style>.cls-1{fill:#86af48;}.cls-2{fill:#4e4e4e;}.cls-3{fill:#666766;}</style></defs><title>Momentum Loans</title><g id="Layer_2" data-name="Layer 2"><g id="Layer_1-2" data-name="Layer 1"><path class="cls-1" d="M13.6,25.63A12,12,0,1,1,25.31,10.91,10.29,10.29,0,0,1,25.49,12a7.67,7.67,0,0,1-.13,2.44,7.28,7.28,0,0,1-3,4.46l-.37.25c-.23.15-.46.3-.72.44-.45.25-.75.38-.75.38-2,.87-2.32-.09-2.35-.52a1,1,0,0,1,0-.19l.24-2.79.52-6,0-.22c.1-1.08.27-2.89-.79-3.22S16.35,8,14.64,11l0,.06A38.08,38.08,0,0,1,11.5,16l-.26.34a3.32,3.32,0,0,1-1.06,1.05.63.63,0,0,1-.7,0c-1-.7-.47-5.1-.35-6,.17-1.36.25-2.5-.61-2.73C8,8.56,7.16,8.33,4.19,15.27l1.24.52C6,14.47,6.66,13.05,7.23,12a.26.26,0,0,1,.29-.12.27.27,0,0,1,.18.27c-.42,3.9,0,6.15,1.27,6.7,1.46.63,3-1.3,3.57-1.94a41.12,41.12,0,0,0,3.24-5.12c.43-.77,1-1.68,1.38-2.38a.27.27,0,0,1,.21-.12h.08a.25.25,0,0,1,.17.25c0,.13,0,.29,0,.44l-.73,6.47L16.59,19a5.08,5.08,0,0,0,.14,1.8,1.73,1.73,0,0,0,1.48,1.35h.33a3.44,3.44,0,0,0,1.06-.2,14,14,0,0,0,4.19-2.25,4.39,4.39,0,0,0,.4-.33c.2-.17.4-.35.59-.54a8,8,0,0,0,2.14-4.38,10.09,10.09,0,0,0,.14-1.49h0a11.18,11.18,0,0,0-.19-2.22,13.62,13.62,0,1,0-8.11,15.49l-.7-1.42A12,12,0,0,1,13.6,25.63Z"/><path class="cls-2" d="M40.94,17.9V10.75L38,16.17h-.87l-3-5.42V17.9H32.59V8h1.68L37.56,14,40.85,8h1.68V17.9Z"/><path class="cls-2" d="M48.9,18A4.41,4.41,0,0,1,47,17.55a4.89,4.89,0,0,1-1.51-1.14,5.25,5.25,0,0,1-1-5.38,5.32,5.32,0,0,1,1-1.61A4.73,4.73,0,0,1,47,8.31a4.38,4.38,0,0,1,1.91-.42,4.29,4.29,0,0,1,1.94.44,4.79,4.79,0,0,1,1.5,1.16,5.21,5.21,0,0,1,1,5.36,4.81,4.81,0,0,1-1,1.6,4.66,4.66,0,0,1-1.52,1.11A4.28,4.28,0,0,1,48.9,18Zm-3.17-5A4.18,4.18,0,0,0,46,14.29a3.71,3.71,0,0,0,.63,1.16,3.13,3.13,0,0,0,1,.81,2.88,2.88,0,0,0,1.32.3,2.79,2.79,0,0,0,1.34-.32,3.12,3.12,0,0,0,1-.83,3.7,3.7,0,0,0,.62-1.16,4.24,4.24,0,0,0,.21-1.32,4.12,4.12,0,0,0-.22-1.36,3.67,3.67,0,0,0-.64-1.15,3.32,3.32,0,0,0-1-.8,3,3,0,0,0-2.64,0,3.08,3.08,0,0,0-1,.82A3.54,3.54,0,0,0,46,11.61,4,4,0,0,0,45.73,12.93Z"/><path class="cls-2" d="M63.65,17.9V10.75L60.7,16.17h-.87l-3-5.42V17.9H55.29V8H57L60.26,14,63.55,8h1.68V17.9Z"/><path class="cls-2" d="M74.29,16.52V17.9H67.47V8h6.7V9.35H69v2.83h4.44v1.3H69v3Z"/><path class="cls-2" d="M77.49,10.9v7H75.92V8h1.23l5.68,7.17V8h1.59V17.9H83.11Z"/><path class="cls-2" d="M94,9.35H90.64V17.9H89.06V9.35H85.74V8H94Z"/><path class="cls-2" d="M99.42,16.56a2.45,2.45,0,0,0,1.3-.31,2.39,2.39,0,0,0,.84-.8,3.19,3.19,0,0,0,.44-1.14,6.26,6.26,0,0,0,.14-1.31V8h1.58v5a7.5,7.5,0,0,1-.24,1.93,4.53,4.53,0,0,1-.75,1.58,3.64,3.64,0,0,1-1.34,1.07,4.55,4.55,0,0,1-2,.39,4.39,4.39,0,0,1-2-.41,3.57,3.57,0,0,1-1.32-1.11,4.49,4.49,0,0,1-.73-1.58A7.66,7.66,0,0,1,95.14,13V8h1.57v5a6.45,6.45,0,0,0,.13,1.33,3.43,3.43,0,0,0,.45,1.13,2.39,2.39,0,0,0,.84.8A2.56,2.56,0,0,0,99.42,16.56Z"/><path class="cls-2" d="M114.16,17.9V10.75l-3,5.42h-.87l-3-5.42V17.9h-1.56V8h1.68L110.78,14,114.07,8h1.68V17.9Z"/><path class="cls-3" d="M118.64,17.9V8h1V17h5.74v.86Z"/><path class="cls-3" d="M130.07,18a4.3,4.3,0,0,1-1.9-.42,4.89,4.89,0,0,1-1.48-1.14,5.24,5.24,0,0,1-1-1.62,5.37,5.37,0,0,1,0-3.76,5.3,5.3,0,0,1,1-1.61,4.72,4.72,0,0,1,1.48-1.11,4.3,4.3,0,0,1,3.75,0,4.91,4.91,0,0,1,1.47,1.16,5,5,0,0,1,.94,1.62,5.17,5.17,0,0,1,0,3.74,4.93,4.93,0,0,1-1,1.6,4.47,4.47,0,0,1-1.47,1.11A4.14,4.14,0,0,1,130.07,18Zm-3.68-5a4.52,4.52,0,0,0,.26,1.56,4.16,4.16,0,0,0,.76,1.33,3.72,3.72,0,0,0,1.16.93,3.24,3.24,0,0,0,1.5.34,3.19,3.19,0,0,0,1.52-.36,3.88,3.88,0,0,0,1.17-1,4.62,4.62,0,0,0,1-2.85,4.57,4.57,0,0,0-.27-1.56,4.32,4.32,0,0,0-.77-1.32,3.72,3.72,0,0,0-1.16-.92,3.19,3.19,0,0,0-1.48-.34,3.26,3.26,0,0,0-1.53.36,3.54,3.54,0,0,0-1.16.94,4.31,4.31,0,0,0-.73,1.33A4.4,4.4,0,0,0,126.39,12.93Z"/><path class="cls-3" d="M139.2,8H140l4.13,9.94h-1l-1.29-3.11h-4.47l-1.27,3.11H135ZM141.6,14l-2-4.92-2,4.92Z"/><path class="cls-3" d="M146.45,9.78V17.9h-1V8h.75l6.58,8.28V8h1V17.9h-.85Z"/><path class="cls-3" d="M161.82,9.83a2.9,2.9,0,0,0-1.12-.77,4,4,0,0,0-1.6-.3,3,3,0,0,0-1.91.5,1.64,1.64,0,0,0-.61,1.35,1.43,1.43,0,0,0,.17.73,1.3,1.3,0,0,0,.49.5,3.89,3.89,0,0,0,.86.37c.35.1.77.2,1.24.3a13.54,13.54,0,0,1,1.44.38,4.18,4.18,0,0,1,1.08.53,2.17,2.17,0,0,1,.69.76,2.35,2.35,0,0,1,.24,1.12,2.49,2.49,0,0,1-.27,1.19,2.39,2.39,0,0,1-.74.84,3.49,3.49,0,0,1-1.14.5,6.41,6.41,0,0,1-1.44.16,5.89,5.89,0,0,1-4-1.45l.49-.79a4.4,4.4,0,0,0,.64.53,4.65,4.65,0,0,0,.83.44,4.77,4.77,0,0,0,1,.29,5.44,5.44,0,0,0,1.09.11,3.35,3.35,0,0,0,1.85-.43,1.41,1.41,0,0,0,.67-1.29,1.46,1.46,0,0,0-.19-.78,1.68,1.68,0,0,0-.57-.55,4.07,4.07,0,0,0-.93-.39c-.38-.12-.81-.23-1.31-.34s-1-.25-1.37-.38a3.52,3.52,0,0,1-1-.49,1.8,1.8,0,0,1-.61-.71,2.19,2.19,0,0,1-.2-1,2.85,2.85,0,0,1,.25-1.23,2.54,2.54,0,0,1,.74-.89,3.55,3.55,0,0,1,1.12-.55,5.27,5.27,0,0,1,1.43-.19,4.9,4.9,0,0,1,1.77.3A5.05,5.05,0,0,1,162.3,9Z"/></g></g></svg>